<?xml version="1.0"?>
<svg width="56" height="56" xmlns="http://www.w3.org/2000/svg" xmlns:svg="http://www.w3.org/2000/svg" version="1.1" xml:space="preserve">
 <desc>Created with Fabric.js 4.6.0</desc>

 <g class="layer">
  <title>Layer 1</title>
  <g id="vtK60NscjjmXeWS74OdTE" transform="matrix(1, 0, 0, 1, 0, 0) matrix(0.109225, 0, 0, 0.109225, -119.5, -102.205)">
   <path d="m1108.96832,1051.23214c0,-55.91644 45.328,-101.24567 101.24293,-101.24567l278.51413,0l0,0c55.91493,0 101.24293,45.32923 101.24293,101.24567l0,278.50866l0,0c0,55.91644 -45.328,101.24567 -101.24293,101.24567l-278.51413,0l0,0c-55.91493,0 -101.24293,-45.32923 -101.24293,-101.24567l0,-278.50866z" fill="none" fill-rule="nonzero" id="svg_1" stroke="rgb(0,0,0)" stroke-dashoffset="0" stroke-miterlimit="4" stroke-width="34" transform="translate(0)"/>
  </g>
  <g id="wz_Le5cUEbULdctJ3LHZ-" transform="matrix(1.2114, 0, 0, 1.2114, -93.6044, -101.732)">
   <path d="m91.18028,93.054615c3.91651,1.35573 4.01209,1.40687 3.89016,2.08252c-0.05498,0.30459 -0.16373,0.67733 -0.24182,0.82836c-0.1781,0.34423 -0.65649,1.699 -1.01677,2.87938c-0.15128,0.49551 -0.4549,1.37417 -0.67469,1.95245c-0.21967,0.57815 -0.46844,1.32159 -0.55264,1.65205c-0.08432,0.33034 -0.215,0.7359 -0.29057,0.90107c-0.07546,0.16517 -0.26183,0.67206 -0.41418,1.12648c-0.15235,0.45431 -0.6608,1.97496 -1.13007,3.3792c-0.46928,1.40424 -0.90873,2.65457 -0.97664,2.77841c-0.06779,0.12397 -0.21021,0.59696 -0.31632,1.05138c-0.10624,0.4543 -0.24314,0.89352 -0.30447,0.97616c-0.0612,0.08265 -0.33094,0.82609 -0.59947,1.65205c-0.26841,0.82609 -0.53935,1.63708 -0.60211,1.80225c-0.3743,0.98587 -0.91376,2.53479 -1.17679,3.3792c-0.16721,0.53695 -0.51072,1.54809 -0.7632,2.24697c-0.57516,1.59193 -0.679,1.52329 2.23045,1.47407l2.44484,-0.04144l0.64678,-1.78225c0.35573,-0.98036 0.72547,-2.09462 0.82154,-2.4761c0.09606,-0.3816 0.22793,-0.76225 0.29309,-0.84597c0.06504,-0.08372 0.16661,-0.35501 0.22566,-0.60283c0.05905,-0.24781 0.19487,-0.65325 0.30171,-0.90107c0.19823,-0.45994 0.92011,-2.596 1.7638,-5.21906l0.47095,-1.46425l3.69277,0c4.65277,0 5.954,-0.20985 8.19798,-1.32147c9.21786,-4.56665 10.94262,-15.94764 2.64534,-17.45525c-1.39993,-0.2544 -23.49322,-0.19332 -23.90407,-0.10248m21.92574,5.35979c3.02659,0.86801 2.07869,5.46041 -1.56821,7.59755l-0.75087,0.44005l-4.03856,0.04659c-4.26278,0.04923 -4.40915,0.02767 -4.08216,-0.60271c0.11379,-0.21943 0.27728,-0.69086 0.36316,-1.04779c0.17427,-0.72356 0.6826,-2.212 0.99114,-2.90178c0.11079,-0.24781 0.25057,-0.68715 0.31058,-0.97616c0.05989,-0.28914 0.19415,-0.69469 0.29812,-0.90118c0.10396,-0.20649 0.23883,-0.61205 0.29968,-0.90107c0.06073,-0.28914 0.17846,-0.61025 0.26171,-0.7135c0.18781,-0.23308 7.11989,-0.26818 7.91543,-0.04" fill="rgb(0,0,0)" fill-rule="evenodd" id="svg_2" stroke-dashoffset="0" stroke-miterlimit="4" transform="translate(0)"/>
  </g>
  <g id="GwQ-WmFTl4o86etl-BQM8" transform="matrix(0.52 0 0 0.52 -126.31 -6.06)">
   <path fill="rgb(0,0,0)" fill-rule="nonzero" id="svg_3" stroke="rgb(0,0,0)" stroke-dashoffset="0" stroke-miterlimit="4" stroke-width="0" transform=" translate(0, 0)"/>
  </g>
 </g>
</svg>